PathFileType	3	(X/Y/Z)	F:\ViconData\AntennenMessung\Messung1\Session1\ID04.trc
DataRate	CameraRate	NumFrames	NumMarkers	Units	OrigDataRate	OrigDataStartFrame	OrigNumFrames
120.0	120.0	6	70	mm	120.0	145	1154	
Frame#	Time	Ashort			Along			Atop			A4			Bshort			Blong			Btop			B4			Cshort			Clong			Ctop			C4			Dshort			Dlong			Dtop			D4			Eshort			Elong			Etop			E4			Fshort			Flong			Ftop			F4			Gshort			Glong			Gtop			G4			Hshort			Hlong			Htop			H4			I1			I2			I3			I4			I5			WandAshort			WandAlong			WandAtop			WandA4			WandA15			WandBshort			WandB4			WandB5			WandBtop			WandBlong			WandCshort			WandClong			WandCtop			WandC4			WandC5			Acenter			Aantenna			Bcenter			Bantenna			Ccenter			Cantenna			Dcenter			Dantenna			Ecenter			Eantenna			Fcenter			Fantenna			Gcenter			Gantenna			Hcenter			Hantenna			Icenter			Iantenna			
		X1	Y1	Z1	X2	Y2	Z2	X3	Y3	Z3	X4	Y4	Z4	X5	Y5	Z5	X6	Y6	Z6	X7	Y7	Z7	X8	Y8	Z8	X9	Y9	Z9	X10	Y10	Z10	X11	Y11	Z11	X12	Y12	Z12	X13	Y13	Z13	X14	Y14	Z14	X15	Y15	Z15	X16	Y16	Z16	X17	Y17	Z17	X18	Y18	Z18	X19	Y19	Z19	X20	Y20	Z20	X21	Y21	Z21	X22	Y22	Z22	X23	Y23	Z23	X24	Y24	Z24	X25	Y25	Z25	X26	Y26	Z26	X27	Y27	Z27	X28	Y28	Z28	X29	Y29	Z29	X30	Y30	Z30	X31	Y31	Z31	X32	Y32	Z32	X33	Y33	Z33	X34	Y34	Z34	X35	Y35	Z35	X36	Y36	Z36	X37	Y37	Z37	X38	Y38	Z38	X39	Y39	Z39	X40	Y40	Z40	X41	Y41	Z41	X42	Y42	Z42	X43	Y43	Z43	X44	Y44	Z44	X45	Y45	Z45	X46	Y46	Z46	X47	Y47	Z47	X48	Y48	Z48	X49	Y49	Z49	X50	Y50	Z50	X51	Y51	Z51	X52	Y52	Z52	X53	Y53	Z53	X54	Y54	Z54	X55	Y55	Z55	X56	Y56	Z56	X57	Y57	Z57	X58	Y58	Z58	X59	Y59	Z59	X60	Y60	Z60	X61	Y61	Z61	X62	Y62	Z62	X63	Y63	Z63	X64	Y64	Z64	X65	Y65	Z65	X66	Y66	Z66	X67	Y67	Z67	X68	Y68	Z68	X69	Y69	Z69	X70	Y70	Z70	
145	1.2	-1038.3235	214.47777	-1644.2117	-1109.2091	203.17807	-1599.6273	-1063.5739	172.63083	-1625.6278	-1054.1307	262.05103	-1634.9557	-1353.0992	235.01414	1003.9312	-1281.3563	227.0901	1052.301	-1323.1456	194.08678	1020.8463	-1284.7258	287.87933	1052.7982	813.85876	187.63719	1209.5022	892.3056	178.39473	1179.2784	844.14459	145.63551	1198.1221	860.39587	292.45941	1167.1731	1115.8154	209.71712	-1401.709	1056.201	194.03333	-1460.2229	1094.983	162.21651	-1423.901	1069.87	238.55524	-1425.9402	-1204.5059	1686.0054	-1563.2155	-1129.1487	1688.3455	-1606.6056	-1173.1091	1724.3882	-1581.9822	-1133.5349	1580.9971	-1603.4677	-1239.7024	1699.2306	1119.2794	-1309.4762	1698.8745	1071.6809	-1270.327	1736.111	1096.6383	-1244.5704	1594.5791	1106.4833	988.83362	1664.2474	1162.269	955.89661	1702.1841	1181.1689	922.1087	1662.099	1214.7325	939.79517	1659.3027	1159.9559	999.19189	1668.5453	-1579.5209	1058.877	1670.1622	-1518.6495	1025.0533	1708.0095	-1551.1554	1059.2867	1672.1475	-1585.568	-287.22675	140.12219	480.04184	-371.48334	147.21278	481.25961	-327.60046	105.78107	481.13812	-323.95377	144.98788	512.38422	-324.64908	141.30797	434.3139																																														-1069.0128	209.58565	-1624.9092	-1074.6904	248.16286	-1624.1592	-1321.8204	231.55939	1025.0197	-1320.4507	270.29581	1029.3339	847.94482	183.62123	1196.3696	851.82312	222.38669	1194.5813	1088.7019	202.58392	-1428.3218	1082.7407	240.89656	-1432.5176	-1171.9398	1687.0165	-1581.9668	-1170.7201	1648.0356	-1581.9508	-1271.0123	1699.0707	1097.9202	-1271.7335	1660.1007	1099.2688	953.30695	1705.1666	1182.6548	972.89832	1732.2113	1162.5112	1026.5624	1669.2866	-1551.6063	1028.0808	1630.3188	-1552.0602	-324.4549	143.25511	480.5799	-321.19308	182.11415	480.00104
146	1.2083333	-1038.2891	214.5293	-1644.2476	-1109.1952	203.16	-1599.6249	-1063.6549	172.59578	-1625.5685	-1054.1389	262.06149	-1634.9528	-1353.0636	235.41107	1003.9088	-1281.3234	227.06918	1052.2705	-1323.1293	194.17967	1020.8259	-1284.6041	287.84283	1052.7451	813.84924	187.70743	1209.4449	892.3905	178.37842	1179.2688	844.24817	145.56757	1198.1758	860.44025	292.35886	1167.3086	1115.8046	209.73059	-1401.714	1056.0394	193.86072	-1460.167	1094.9705	162.26999	-1423.9141	1069.8756	238.55151	-1425.9351	-1204.443	1685.9489	-1563.3409	-1129.1113	1688.2328	-1606.1268	-1173.1461	1724.3196	-1581.8914	-1133.5709	1581.0254	-1603.5022	-1239.6929	1699.2004	1119.2563	-1309.5486	1698.9889	1071.7268	-1270.3824	1736.1952	1096.6715	-1244.6509	1594.0953	1106.4178	988.80853	1664.2192	1162.2861	955.94788	1702.2936	1181.2389	922.12372	1662.1833	1214.7999	939.77496	1659.2845	1159.9093	999.20233	1668.5459	-1579.5103	1058.8622	1670.161	-1518.6542	1025.0537	1708.0067	-1551.1561	1059.2936	1672.1033	-1585.4618	-287.24384	140.0771	480.05984	-371.78836	147.66005	481.07089	-327.61835	105.81028	481.11072	-323.90561	144.97681	512.40326	-324.65738	141.31418	434.29758																																														-1069.1274	209.58456	-1624.8401	-1074.8344	248.15727	-1624.0808	-1321.6372	231.75684	1025.094	-1320.0996	270.47754	1029.4921	848.0517	183.6449	1196.3041	851.92365	222.40543	1194.3988	1088.5983	202.5063	-1428.3229	1082.5332	240.80261	-1432.519	-1171.9563	1686.9336	-1581.7921	-1170.7157	1647.9535	-1581.6886	-1271.0981	1699.1052	1097.8883	-1271.8502	1660.1334	1099.1671	953.4408	1705.1984	1182.6849	973.0932	1732.1915	1162.5317	1026.5593	1669.2864	-1551.6046	1028.0747	1630.3184	-1552.0558	-324.25443	143.39664	480.50244	-320.77835	182.23633	479.8739
147	1.2166667	-1038.2836	214.508	-1644.226	-1109.2256	203.13713	-1599.6073	-1063.5671	172.67404	-1625.6107	-1054.1389	262.09418	-1635	-1352.9644	235.33081	1003.8658	-1281.4054	227.24716	1052.1416	-1323.1345	194.15109	1020.7922	-1284.6079	287.82675	1052.759	813.81549	187.67474	1209.5063	892.37549	178.44673	1179.2284	844.46832	145.26335	1198.2145	860.55121	292.59085	1167.2119	1115.7483	209.44833	-1401.5743	1056.1808	193.94167	-1460.1195	1095.0231	162.39571	-1423.9683	1069.8638	238.56288	-1425.9427	-1204.4436	1685.9551	-1563.3301	-1129.1277	1688.213	-1606.0746	-1173.1261	1724.4071	-1581.9744	-1133.5568	1581.0431	-1603.5143	-1239.6876	1699.192	1119.2589	-1309.5873	1699.0432	1071.7367	-1270.3865	1736.1864	1096.6683	-1244.5693	1594.4558	1106.718	988.78027	1664.2111	1162.2777	955.73602	1702.3087	1181.1545	922.09912	1662.2024	1214.7853	939.80157	1659.3354	1159.8542	999.21381	1668.5437	-1579.5107	1058.864	1670.1493	-1518.6541	1025.0461	1708.0042	-1551.1605	1059.2766	1672.1321	-1585.5546	-287.21262	140.12604	479.9837	-371.8356	147.73357	481.05527	-327.55817	105.81787	481.04184	-323.9722	144.9957	512.45929	-324.63132	141.28139	434.29553																																														-1069.0286	209.58003	-1624.8889	-1074.7368	248.15268	-1624.1346	-1321.6943	231.79839	1024.9614	-1320.2126	270.53342	1029.2511	848.21729	183.63373	1196.2474	852.00488	222.39847	1194.2603	1088.7124	202.41034	-1428.1461	1082.6692	240.73096	-1432.1471	-1171.9026	1686.9305	-1581.7982	-1170.63	1647.9518	-1581.6149	-1271.1318	1699.125	1097.881	-1271.9158	1660.1538	1099.1561	953.24738	1705.1779	1182.576	972.81378	1732.1741	1162.3433	1026.5542	1669.2795	-1551.6172	1028.072	1630.3119	-1552.0765	-324.18253	143.44958	480.45181	-320.69861	182.28889	479.8429
148	1.225	-1038.2924	214.5358	-1644.2362	-1109.3003	203.35982	-1599.5522	-1063.551	172.6282	-1625.6228	-1054.1332	262.07465	-1634.9729	-1352.9591	235.30722	1003.8785	-1281.3894	227.32146	1052.1946	-1323.1461	194.09753	1020.8334	-1284.5916	287.93643	1052.7111	813.77472	187.69437	1209.485	892.33777	178.3481	1179.2103	844.2403	145.52167	1198.1403	860.50281	292.60852	1167.2268	1115.7932	209.7041	-1401.7133	1056.2084	193.97279	-1460.1595	1095.0356	162.38039	-1423.9545	1069.8875	238.57843	-1425.9353	-1204.4623	1685.9432	-1563.3367	-1129.1465	1688.3723	-1606.6223	-1173.1154	1724.3843	-1581.9816	-1133.5619	1581.0654	-1603.5377	-1239.7144	1699.2305	1119.2828	-1309.483	1698.8345	1071.6626	-1270.3689	1736.1838	1096.6658	-1244.5153	1594.7904	1106.5718	988.78467	1664.2206	1162.2777	955.74475	1702.2297	1181.0522	922.05426	1662.0785	1214.6982	939.79742	1659.2961	1159.9443	999.20825	1668.546	-1579.5247	1058.8516	1670.1489	-1518.6467	1025.051	1708	-1551.1614	1059.2845	1672.1425	-1585.566	-287.26004	140.11525	480.03577	-371.80872	147.76363	481.02649	-327.5708	105.8091	481.01697	-323.96313	144.99983	512.44458	-324.95612	141.61928	433.74774																																														-1068.9572	209.70943	-1624.9393	-1074.5826	248.29501	-1624.2281	-1321.7253	231.82214	1024.9641	-1320.2664	270.56329	1029.2062	848.05359	183.61635	1196.2754	851.93347	222.37646	1194.3778	1088.6908	202.54866	-1428.2976	1082.6404	240.85321	-1432.4393	-1171.937	1686.9922	-1582.0295	-1170.7085	1648.0116	-1582.0797	-1271.0139	1699.0527	1097.9194	-1271.6909	1660.0808	1099.2355	953.24329	1705.1072	1182.4735	972.81488	1732.1083	1162.2522	1026.5531	1669.2809	-1551.6135	1028.0651	1630.3127	-1552.0687	-324.17178	143.45432	480.46826	-320.66507	182.29222	479.90225
149	1.2333333	-1038.2732	214.49229	-1644.2231	-1109.2047	203.17468	-1599.5947	-1063.601	172.60374	-1625.6068	-1054.1414	262.06754	-1634.967	-1353.156	235.27635	1003.9613	-1281.3411	227.29221	1052.2448	-1323.032	194.12895	1020.8295	-1284.7296	287.77136	1052.8472	813.80701	187.66245	1209.5571	892.37488	178.3891	1179.2964	844.17596	145.52162	1198.2163	860.41669	292.39096	1167.2015	1115.7953	209.73193	-1401.7341	1056.2302	193.97313	-1460.153	1094.9443	162.14529	-1423.853	1069.8649	238.54785	-1425.9618	-1204.4464	1685.9476	-1563.34	-1129.121	1688.2133	-1606.0861	-1173.1123	1724.3982	-1581.9773	-1133.5447	1581.0305	-1603.5073	-1239.708	1699.225	1119.2659	-1309.5013	1698.8755	1071.6752	-1270.3459	1736.1318	1096.6492	-1244.6083	1594.1951	1106.6735	988.79297	1664.2119	1162.2662	955.8017	1702.2389	1181.1201	922.57623	1662.123	1214.8427	939.74738	1659.3019	1159.8192	999.20605	1668.5486	-1579.5151	1058.8661	1670.1556	-1518.6511	1025.0411	1708.0006	-1551.1602	1059.2778	1672.1578	-1585.5702	-287.18289	140.16197	479.97574	-371.86771	147.79617	481.02216	-327.53943	105.80917	481.04947	-323.98248	144.99829	512.37866	-324.77307	141.38058	434.14175																																														-1069.0363	209.58382	-1624.8677	-1074.7065	248.1617	-1624.0967	-1321.7166	231.78102	1025.099	-1320.3634	270.50934	1029.4906	847.97333	183.62979	1196.3978	851.83618	222.39391	1194.5479	1088.6608	202.55312	-1428.3464	1082.704	240.85941	-1432.606	-1171.8925	1686.9268	-1581.8137	-1170.6237	1647.9478	-1581.6437	-1271.0222	1699.0681	1097.9132	-1271.7334	1660.0973	1099.2424	953.44476	1704.9556	1182.4672	972.88318	1731.9279	1162.0797	1026.5511	1669.285	-1551.618	1028.0712	1630.3175	-1552.0791	-324.14975	143.49448	480.4325	-320.65646	182.3325	479.79666
150	1.2416667	-1038.3071	214.50879	-1644.2422	-1109.1865	203.14076	-1599.5868	-1063.6178	172.72093	-1625.5145	-1054.156	262.08621	-1635.0021	-1353.0603	235.00635	1003.9199	-1281.3475	227.0766	1052.3477	-1323.2059	194.02113	1020.9047	-1284.7251	287.79559	1052.7985	813.80432	187.69493	1209.4198	892.36749	178.32788	1179.2609	844.26874	145.4493	1198.1731	860.47186	292.64386	1167.2104	1115.7877	209.73288	-1401.7207	1056.1881	194.0376	-1460.2101	1095.0195	162.42941	-1423.9816	1069.848	238.51154	-1425.9395	-1204.4501	1685.9526	-1563.3385	-1129.1018	1688.2206	-1606.1001	-1173.1221	1724.4043	-1581.9788	-1133.5591	1581.0449	-1603.5311	-1239.6847	1699.1935	1119.2546	-1309.4861	1698.8783	1071.6796	-1270.3466	1736.161	1096.6538	-1244.5829	1594.5792	1106.5327	988.79083	1664.208	1162.2828	955.87543	1702.4594	1181.2788	922.59912	1661.9669	1214.7853	939.75195	1659.2999	1159.8936	999.19531	1668.5513	-1579.5278	1058.8533	1670.1404	-1518.6528	1025.0503	1708.0021	-1551.1721	1059.2925	1672.1567	-1585.5806	-287.19589	140.14497	479.99228	-371.64325	147.5127	481.12933	-327.62485	105.82319	481.11673	-323.98511	145.02342	512.36847	-324.79669	141.40892	434.16541																																														-1069.103	209.56958	-1624.8401	-1074.8442	248.13821	-1624.1344	-1321.8286	231.55286	1025.0106	-1320.4067	270.29578	1029.249	848.08411	183.60776	1196.2604	851.95947	222.36607	1194.3177	1088.6915	202.59721	-1428.312	1082.6565	240.90544	-1432.4423	-1171.8992	1686.9325	-1581.8116	-1170.6273	1647.9535	-1581.6378	-1271.0242	1699.0519	1097.8942	-1271.7361	1660.0801	1099.1968	953.80469	1704.8657	1182.4739	973.39801	1731.8009	1162.1862	1026.542	1669.2797	-1551.6232	1028.0431	1630.3113	-1552.0771	-324.35596	143.38705	480.49258	-320.97531	182.23488	479.84714
